%TF.GenerationSoftware,KiCad,Pcbnew,7.0.10-7.0.10~ubuntu22.04.1*%
%TF.CreationDate,2025-04-05T16:35:24+07:00*%
%TF.ProjectId,RNG,524e472e-6b69-4636-9164-5f7063625858,rev?*%
%TF.SameCoordinates,Original*%
%TF.FileFunction,Soldermask,Top*%
%TF.FilePolarity,Negative*%
%FSLAX46Y46*%
G04 Gerber Fmt 4.6, Leading zero omitted, Abs format (unit mm)*
G04 Created by KiCad (PCBNEW 7.0.10-7.0.10~ubuntu22.04.1) date 2025-04-05 16:35:24*
%MOMM*%
%LPD*%
G01*
G04 APERTURE LIST*
G04 Aperture macros list*
%AMRoundRect*
0 Rectangle with rounded corners*
0 $1 Rounding radius*
0 $2 $3 $4 $5 $6 $7 $8 $9 X,Y pos of 4 corners*
0 Add a 4 corners polygon primitive as box body*
4,1,4,$2,$3,$4,$5,$6,$7,$8,$9,$2,$3,0*
0 Add four circle primitives for the rounded corners*
1,1,$1+$1,$2,$3*
1,1,$1+$1,$4,$5*
1,1,$1+$1,$6,$7*
1,1,$1+$1,$8,$9*
0 Add four rect primitives between the rounded corners*
20,1,$1+$1,$2,$3,$4,$5,0*
20,1,$1+$1,$4,$5,$6,$7,0*
20,1,$1+$1,$6,$7,$8,$9,0*
20,1,$1+$1,$8,$9,$2,$3,0*%
G04 Aperture macros list end*
%ADD10RoundRect,0.150000X-0.875000X-0.150000X0.875000X-0.150000X0.875000X0.150000X-0.875000X0.150000X0*%
%ADD11RoundRect,0.225000X0.225000X0.250000X-0.225000X0.250000X-0.225000X-0.250000X0.225000X-0.250000X0*%
%ADD12RoundRect,0.225000X-0.225000X-0.250000X0.225000X-0.250000X0.225000X0.250000X-0.225000X0.250000X0*%
%ADD13RoundRect,0.150000X-0.512500X-0.150000X0.512500X-0.150000X0.512500X0.150000X-0.512500X0.150000X0*%
%ADD14RoundRect,0.135000X0.185000X-0.135000X0.185000X0.135000X-0.185000X0.135000X-0.185000X-0.135000X0*%
%ADD15RoundRect,0.250000X-0.650000X0.325000X-0.650000X-0.325000X0.650000X-0.325000X0.650000X0.325000X0*%
%ADD16R,1.300000X1.300000*%
%ADD17C,1.300000*%
%ADD18RoundRect,0.350000X-0.350000X-1.400000X0.350000X-1.400000X0.350000X1.400000X-0.350000X1.400000X0*%
%ADD19RoundRect,0.250000X1.000000X0.900000X-1.000000X0.900000X-1.000000X-0.900000X1.000000X-0.900000X0*%
%ADD20RoundRect,0.075000X-0.075000X0.125000X-0.075000X-0.125000X0.075000X-0.125000X0.075000X0.125000X0*%
%ADD21C,3.200000*%
%ADD22C,1.600000*%
%ADD23RoundRect,0.200000X0.600000X0.600000X-0.600000X0.600000X-0.600000X-0.600000X0.600000X-0.600000X0*%
%ADD24R,1.600000X1.600000*%
%ADD25O,1.600000X1.600000*%
%ADD26RoundRect,0.250000X0.325000X0.650000X-0.325000X0.650000X-0.325000X-0.650000X0.325000X-0.650000X0*%
%ADD27RoundRect,0.250000X0.600000X0.725000X-0.600000X0.725000X-0.600000X-0.725000X0.600000X-0.725000X0*%
%ADD28O,1.700000X1.950000*%
%ADD29R,1.905000X2.000000*%
%ADD30O,1.905000X2.000000*%
%ADD31RoundRect,0.225000X-0.250000X0.225000X-0.250000X-0.225000X0.250000X-0.225000X0.250000X0.225000X0*%
%ADD32RoundRect,0.250000X0.600000X0.750000X-0.600000X0.750000X-0.600000X-0.750000X0.600000X-0.750000X0*%
%ADD33O,1.700000X2.000000*%
%ADD34C,1.500000*%
%ADD35RoundRect,0.135000X-0.185000X0.135000X-0.185000X-0.135000X0.185000X-0.135000X0.185000X0.135000X0*%
G04 APERTURE END LIST*
D10*
%TO.C,*%
X80045600Y-84861400D03*
X80045600Y-86131400D03*
X80045600Y-87401400D03*
X80045600Y-88671400D03*
X80045600Y-89941400D03*
X80045600Y-91211400D03*
X80045600Y-92481400D03*
X85445600Y-92481400D03*
X85445600Y-91211400D03*
X85445600Y-89941400D03*
X85445600Y-88671400D03*
X85445600Y-87401400D03*
X85445600Y-86131400D03*
X85445600Y-84861400D03*
%TD*%
%TO.C,*%
X79994800Y-95631000D03*
X79994800Y-96901000D03*
X79994800Y-98171000D03*
X79994800Y-99441000D03*
X79994800Y-100711000D03*
X79994800Y-101981000D03*
X79994800Y-103251000D03*
X85394800Y-103251000D03*
X85394800Y-101981000D03*
X85394800Y-100711000D03*
X85394800Y-99441000D03*
X85394800Y-98171000D03*
X85394800Y-96901000D03*
X85394800Y-95631000D03*
%TD*%
D11*
%TO.C,C6*%
X80150000Y-113665000D03*
X78600000Y-113665000D03*
%TD*%
D12*
%TO.C,C1*%
X69342000Y-84785200D03*
X70892000Y-84785200D03*
%TD*%
D11*
%TO.C,C5*%
X80175400Y-108712000D03*
X78625400Y-108712000D03*
%TD*%
D13*
%TO.C,U5*%
X58877200Y-76250800D03*
X58877200Y-77200800D03*
X58877200Y-78150800D03*
X61152200Y-78150800D03*
X61152200Y-77200800D03*
X61152200Y-76250800D03*
%TD*%
D14*
%TO.C,R6*%
X54381400Y-78794800D03*
X54381400Y-77774800D03*
%TD*%
D15*
%TO.C,C4*%
X51892200Y-76274400D03*
X51892200Y-79224400D03*
%TD*%
D16*
%TO.C,Q2*%
X57856800Y-84785200D03*
D17*
X59126800Y-86055200D03*
X57856800Y-87325200D03*
%TD*%
D18*
%TO.C,L1*%
X64049600Y-70358000D03*
X66649600Y-70358000D03*
%TD*%
D19*
%TO.C,D1*%
X76657200Y-70434200D03*
X72357200Y-70434200D03*
%TD*%
D20*
%TO.C,R2*%
X77266800Y-85530200D03*
X77266800Y-86030200D03*
%TD*%
D21*
%TO.C,H1*%
X84582000Y-125780800D03*
%TD*%
D20*
%TO.C,R4*%
X77038200Y-94843200D03*
X77038200Y-95343200D03*
%TD*%
D21*
%TO.C,H3*%
X17627600Y-125780800D03*
%TD*%
D20*
%TO.C,R1*%
X69367400Y-79201200D03*
X69367400Y-79701200D03*
%TD*%
D22*
%TO.C,A1*%
X46075600Y-127914400D03*
X46075600Y-125374400D03*
D23*
X46075600Y-122834400D03*
D22*
X46075600Y-120294400D03*
X46075600Y-117754400D03*
X46075600Y-115214400D03*
X46075600Y-112674400D03*
D23*
X46075600Y-110134400D03*
D22*
X46075600Y-107594400D03*
X46075600Y-105054400D03*
X46075600Y-102514400D03*
X46075600Y-99974400D03*
D23*
X46075600Y-97434400D03*
D22*
X46075600Y-94894400D03*
X46075600Y-92354400D03*
X46033719Y-89814400D03*
X46075600Y-87274400D03*
D23*
X46075600Y-84734400D03*
D22*
X46075600Y-82194400D03*
X46075600Y-79654400D03*
X28295600Y-79654400D03*
X28295600Y-82194400D03*
D23*
X28295600Y-84734400D03*
D22*
X28295600Y-87274400D03*
X28295600Y-89814400D03*
X28295600Y-92354400D03*
X28295600Y-94894400D03*
D23*
X28295600Y-97434400D03*
D22*
X28295600Y-99974400D03*
X28295600Y-102514400D03*
X28295600Y-105054400D03*
X28295600Y-107594400D03*
D23*
X28295600Y-110134400D03*
D22*
X28295600Y-112674400D03*
X28295600Y-115214400D03*
X28295600Y-117754400D03*
X28295600Y-120294400D03*
D23*
X28295600Y-122834400D03*
D22*
X28295600Y-125374400D03*
X28295600Y-127914400D03*
%TD*%
D24*
%TO.C,U6*%
X65659000Y-127482600D03*
D25*
X65659000Y-124942600D03*
X65659000Y-122402600D03*
X65659000Y-119862600D03*
X65659000Y-117322600D03*
X65659000Y-114782600D03*
X65659000Y-112242600D03*
X65659000Y-109702600D03*
X65659000Y-107162600D03*
X65659000Y-104622600D03*
X58039000Y-104622600D03*
X58039000Y-107162600D03*
X58039000Y-109702600D03*
X58039000Y-112242600D03*
X58039000Y-114782600D03*
X58039000Y-117322600D03*
X58039000Y-119862600D03*
X58039000Y-122402600D03*
X58039000Y-124942600D03*
X58039000Y-127482600D03*
%TD*%
D26*
%TO.C,C3*%
X66932600Y-75996800D03*
X63982600Y-75996800D03*
%TD*%
D27*
%TO.C,J1*%
X58216800Y-70586600D03*
D28*
X55716800Y-70586600D03*
X53216800Y-70586600D03*
%TD*%
D11*
%TO.C,C7*%
X24270000Y-122834400D03*
X22720000Y-122834400D03*
%TD*%
D21*
%TO.C,H4*%
X17678400Y-97891600D03*
%TD*%
D29*
%TO.C,U3*%
X75641200Y-79202400D03*
D30*
X78181200Y-79202400D03*
X80721200Y-79202400D03*
%TD*%
D31*
%TO.C,C2*%
X77063600Y-90563400D03*
X77063600Y-92113400D03*
%TD*%
D21*
%TO.C,H2*%
X17729200Y-69799200D03*
%TD*%
D16*
%TO.C,Q1*%
X64643000Y-87350600D03*
D17*
X63373000Y-86080600D03*
X64643000Y-84810600D03*
%TD*%
D32*
%TO.C,J2*%
X84429600Y-70383400D03*
D33*
X81929600Y-70383400D03*
%TD*%
D34*
%TO.C,Y1*%
X73685400Y-113693600D03*
X73685400Y-108813600D03*
%TD*%
D35*
%TO.C,R5*%
X56134000Y-77747400D03*
X56134000Y-78767400D03*
%TD*%
D20*
%TO.C,R3*%
X77317600Y-87786400D03*
X77317600Y-88286400D03*
%TD*%
M02*
