M48
; DRILL file {KiCad 7.0.10-7.0.10~ubuntu22.04.1} date Thứ bảy, 05 Tháng 4 Năm 2025 16:35:16 +07
; FORMAT={-:-/ absolute / metric / decimal}
; #@! TF.CreationDate,2025-04-05T16:35:16+07:00
; #@! TF.GenerationSoftware,Kicad,Pcbnew,7.0.10-7.0.10~ubuntu22.04.1
; #@! TF.FileFunction,Plated,1,2,PTH
FMAT,2
METRIC
; #@! TA.AperFunction,Plated,PTH,ViaDrill
T1C0.400
; #@! TA.AperFunction,Plated,PTH,ComponentDrill
T2C0.750
; #@! TA.AperFunction,Plated,PTH,ComponentDrill
T3C0.800
; #@! TA.AperFunction,Plated,PTH,ComponentDrill
T4C0.950
; #@! TA.AperFunction,Plated,PTH,ComponentDrill
T5C1.000
; #@! TA.AperFunction,Plated,PTH,ComponentDrill
T6C1.100
%
G90
G05
T1
X24.79Y-82.296
X24.816Y-125.324
X24.867Y-117.551
X36.754Y-97.257
X36.805Y-110.287
X36.982Y-122.707
X37.033Y-84.938
X48.393Y-70.519
X50.038Y-74.016
X50.648Y-99.136
X52.299Y-106.07
X52.349Y-116.713
X52.349Y-121.107
X52.349Y-123.571
X52.426Y-108.509
X52.426Y-111.049
X52.426Y-126.314
X53.899Y-73.965
X57.302Y-77.292
X58.572Y-75.082
X61.163Y-88.29
X61.189Y-74.676
X61.189Y-82.525
X61.214Y-79.832
X61.773Y-126.365
X61.874Y-100.101
X62.052Y-112.471
X62.128Y-71.933
X62.535Y-74.397
X62.586Y-118.288
X63.449Y-108.433
X66.802Y-73.304
X68.758Y-93.802
X71.577Y-74.905
X72.06Y-82.194
X82.601Y-96.418
X82.626Y-94.158
X82.728Y-88.494
X85.776Y-75.59
T2
X57.857Y-84.785
X57.857Y-87.325
X59.127Y-86.055
X63.373Y-86.081
X64.643Y-84.811
X64.643Y-87.351
T3
X58.039Y-104.623
X58.039Y-107.163
X58.039Y-109.703
X58.039Y-112.243
X58.039Y-114.783
X58.039Y-117.323
X58.039Y-119.863
X58.039Y-122.403
X58.039Y-124.943
X58.039Y-127.483
X65.659Y-104.623
X65.659Y-107.163
X65.659Y-109.703
X65.659Y-112.243
X65.659Y-114.783
X65.659Y-117.323
X65.659Y-119.863
X65.659Y-122.403
X65.659Y-124.943
X65.659Y-127.483
X73.685Y-108.814
X73.685Y-113.694
T4
X53.217Y-70.587
X55.717Y-70.587
X58.217Y-70.587
T5
X28.296Y-79.654
X28.296Y-82.194
X28.296Y-84.734
X28.296Y-87.274
X28.296Y-89.814
X28.296Y-92.354
X28.296Y-94.894
X28.296Y-97.434
X28.296Y-99.974
X28.296Y-102.514
X28.296Y-105.054
X28.296Y-107.594
X28.296Y-110.134
X28.296Y-112.674
X28.296Y-115.214
X28.296Y-117.754
X28.296Y-120.294
X28.296Y-122.834
X28.296Y-125.374
X28.296Y-127.914
X46.034Y-89.814
X46.076Y-79.654
X46.076Y-82.194
X46.076Y-84.734
X46.076Y-87.274
X46.076Y-92.354
X46.076Y-94.894
X46.076Y-97.434
X46.076Y-99.974
X46.076Y-102.514
X46.076Y-105.054
X46.076Y-107.594
X46.076Y-110.134
X46.076Y-112.674
X46.076Y-115.214
X46.076Y-117.754
X46.076Y-120.294
X46.076Y-122.834
X46.076Y-125.374
X46.076Y-127.914
X81.93Y-70.383
X84.43Y-70.383
T6
X75.641Y-79.202
X78.181Y-79.202
X80.721Y-79.202
M30
