%TF.GenerationSoftware,KiCad,Pcbnew,7.0.10-7.0.10~ubuntu22.04.1*%
%TF.CreationDate,2025-04-05T16:35:24+07:00*%
%TF.ProjectId,RNG,524e472e-6b69-4636-9164-5f7063625858,rev?*%
%TF.SameCoordinates,Original*%
%TF.FileFunction,Legend,Top*%
%TF.FilePolarity,Positive*%
%FSLAX46Y46*%
G04 Gerber Fmt 4.6, Leading zero omitted, Abs format (unit mm)*
G04 Created by KiCad (PCBNEW 7.0.10-7.0.10~ubuntu22.04.1) date 2025-04-05 16:35:24*
%MOMM*%
%LPD*%
G01*
G04 APERTURE LIST*
%ADD10C,0.150000*%
%ADD11C,0.100000*%
%ADD12C,0.120000*%
%ADD13C,0.127000*%
%ADD14C,0.300000*%
G04 APERTURE END LIST*
D10*
X33373145Y-103814358D02*
X33373145Y-102814358D01*
X33373145Y-102814358D02*
X33754097Y-102814358D01*
X33754097Y-102814358D02*
X33849335Y-102861977D01*
X33849335Y-102861977D02*
X33896954Y-102909596D01*
X33896954Y-102909596D02*
X33944573Y-103004834D01*
X33944573Y-103004834D02*
X33944573Y-103147691D01*
X33944573Y-103147691D02*
X33896954Y-103242929D01*
X33896954Y-103242929D02*
X33849335Y-103290548D01*
X33849335Y-103290548D02*
X33754097Y-103338167D01*
X33754097Y-103338167D02*
X33373145Y-103338167D01*
X34373145Y-103814358D02*
X34373145Y-103147691D01*
X34373145Y-102814358D02*
X34325526Y-102861977D01*
X34325526Y-102861977D02*
X34373145Y-102909596D01*
X34373145Y-102909596D02*
X34420764Y-102861977D01*
X34420764Y-102861977D02*
X34373145Y-102814358D01*
X34373145Y-102814358D02*
X34373145Y-102909596D01*
X35611240Y-103814358D02*
X35611240Y-102814358D01*
X35611240Y-102814358D02*
X35992192Y-102814358D01*
X35992192Y-102814358D02*
X36087430Y-102861977D01*
X36087430Y-102861977D02*
X36135049Y-102909596D01*
X36135049Y-102909596D02*
X36182668Y-103004834D01*
X36182668Y-103004834D02*
X36182668Y-103147691D01*
X36182668Y-103147691D02*
X36135049Y-103242929D01*
X36135049Y-103242929D02*
X36087430Y-103290548D01*
X36087430Y-103290548D02*
X35992192Y-103338167D01*
X35992192Y-103338167D02*
X35611240Y-103338167D01*
X36611240Y-103814358D02*
X36611240Y-103147691D01*
X36611240Y-102814358D02*
X36563621Y-102861977D01*
X36563621Y-102861977D02*
X36611240Y-102909596D01*
X36611240Y-102909596D02*
X36658859Y-102861977D01*
X36658859Y-102861977D02*
X36611240Y-102814358D01*
X36611240Y-102814358D02*
X36611240Y-102909596D01*
X37516001Y-103766739D02*
X37420763Y-103814358D01*
X37420763Y-103814358D02*
X37230287Y-103814358D01*
X37230287Y-103814358D02*
X37135049Y-103766739D01*
X37135049Y-103766739D02*
X37087430Y-103719119D01*
X37087430Y-103719119D02*
X37039811Y-103623881D01*
X37039811Y-103623881D02*
X37039811Y-103338167D01*
X37039811Y-103338167D02*
X37087430Y-103242929D01*
X37087430Y-103242929D02*
X37135049Y-103195310D01*
X37135049Y-103195310D02*
X37230287Y-103147691D01*
X37230287Y-103147691D02*
X37420763Y-103147691D01*
X37420763Y-103147691D02*
X37516001Y-103195310D01*
X38087430Y-103814358D02*
X37992192Y-103766739D01*
X37992192Y-103766739D02*
X37944573Y-103719119D01*
X37944573Y-103719119D02*
X37896954Y-103623881D01*
X37896954Y-103623881D02*
X37896954Y-103338167D01*
X37896954Y-103338167D02*
X37944573Y-103242929D01*
X37944573Y-103242929D02*
X37992192Y-103195310D01*
X37992192Y-103195310D02*
X38087430Y-103147691D01*
X38087430Y-103147691D02*
X38230287Y-103147691D01*
X38230287Y-103147691D02*
X38325525Y-103195310D01*
X38325525Y-103195310D02*
X38373144Y-103242929D01*
X38373144Y-103242929D02*
X38420763Y-103338167D01*
X38420763Y-103338167D02*
X38420763Y-103623881D01*
X38420763Y-103623881D02*
X38373144Y-103719119D01*
X38373144Y-103719119D02*
X38325525Y-103766739D01*
X38325525Y-103766739D02*
X38230287Y-103814358D01*
X38230287Y-103814358D02*
X38087430Y-103814358D01*
X39516002Y-102814358D02*
X39754097Y-103814358D01*
X39754097Y-103814358D02*
X39944573Y-103100072D01*
X39944573Y-103100072D02*
X40135049Y-103814358D01*
X40135049Y-103814358D02*
X40373145Y-102814358D01*
X61134790Y-113543409D02*
X61134790Y-113067219D01*
X61420505Y-113638647D02*
X60420505Y-113305314D01*
X60420505Y-113305314D02*
X61420505Y-112971981D01*
X60753838Y-112781504D02*
X60753838Y-112400552D01*
X60420505Y-112638647D02*
X61277647Y-112638647D01*
X61277647Y-112638647D02*
X61372886Y-112591028D01*
X61372886Y-112591028D02*
X61420505Y-112495790D01*
X61420505Y-112495790D02*
X61420505Y-112400552D01*
X60753838Y-112210075D02*
X60753838Y-111829123D01*
X60420505Y-112067218D02*
X61277647Y-112067218D01*
X61277647Y-112067218D02*
X61372886Y-112019599D01*
X61372886Y-112019599D02*
X61420505Y-111924361D01*
X61420505Y-111924361D02*
X61420505Y-111829123D01*
X61420505Y-111495789D02*
X60753838Y-111495789D01*
X60420505Y-111495789D02*
X60468124Y-111543408D01*
X60468124Y-111543408D02*
X60515743Y-111495789D01*
X60515743Y-111495789D02*
X60468124Y-111448170D01*
X60468124Y-111448170D02*
X60420505Y-111495789D01*
X60420505Y-111495789D02*
X60515743Y-111495789D01*
X60753838Y-111019599D02*
X61420505Y-111019599D01*
X60849076Y-111019599D02*
X60801457Y-110971980D01*
X60801457Y-110971980D02*
X60753838Y-110876742D01*
X60753838Y-110876742D02*
X60753838Y-110733885D01*
X60753838Y-110733885D02*
X60801457Y-110638647D01*
X60801457Y-110638647D02*
X60896695Y-110591028D01*
X60896695Y-110591028D02*
X61420505Y-110591028D01*
X60753838Y-110210075D02*
X61420505Y-109971980D01*
X60753838Y-109733885D02*
X61420505Y-109971980D01*
X61420505Y-109971980D02*
X61658600Y-110067218D01*
X61658600Y-110067218D02*
X61706219Y-110114837D01*
X61706219Y-110114837D02*
X61753838Y-110210075D01*
X60515743Y-109400551D02*
X60468124Y-109352932D01*
X60468124Y-109352932D02*
X60420505Y-109257694D01*
X60420505Y-109257694D02*
X60420505Y-109019599D01*
X60420505Y-109019599D02*
X60468124Y-108924361D01*
X60468124Y-108924361D02*
X60515743Y-108876742D01*
X60515743Y-108876742D02*
X60610981Y-108829123D01*
X60610981Y-108829123D02*
X60706219Y-108829123D01*
X60706219Y-108829123D02*
X60849076Y-108876742D01*
X60849076Y-108876742D02*
X61420505Y-109448170D01*
X61420505Y-109448170D02*
X61420505Y-108829123D01*
X60420505Y-107971980D02*
X60420505Y-108162456D01*
X60420505Y-108162456D02*
X60468124Y-108257694D01*
X60468124Y-108257694D02*
X60515743Y-108305313D01*
X60515743Y-108305313D02*
X60658600Y-108400551D01*
X60658600Y-108400551D02*
X60849076Y-108448170D01*
X60849076Y-108448170D02*
X61230028Y-108448170D01*
X61230028Y-108448170D02*
X61325266Y-108400551D01*
X61325266Y-108400551D02*
X61372886Y-108352932D01*
X61372886Y-108352932D02*
X61420505Y-108257694D01*
X61420505Y-108257694D02*
X61420505Y-108067218D01*
X61420505Y-108067218D02*
X61372886Y-107971980D01*
X61372886Y-107971980D02*
X61325266Y-107924361D01*
X61325266Y-107924361D02*
X61230028Y-107876742D01*
X61230028Y-107876742D02*
X60991933Y-107876742D01*
X60991933Y-107876742D02*
X60896695Y-107924361D01*
X60896695Y-107924361D02*
X60849076Y-107971980D01*
X60849076Y-107971980D02*
X60801457Y-108067218D01*
X60801457Y-108067218D02*
X60801457Y-108257694D01*
X60801457Y-108257694D02*
X60849076Y-108352932D01*
X60849076Y-108352932D02*
X60896695Y-108400551D01*
X60896695Y-108400551D02*
X60991933Y-108448170D01*
X61420505Y-106924361D02*
X61420505Y-107495789D01*
X61420505Y-107210075D02*
X60420505Y-107210075D01*
X60420505Y-107210075D02*
X60563362Y-107305313D01*
X60563362Y-107305313D02*
X60658600Y-107400551D01*
X60658600Y-107400551D02*
X60706219Y-107495789D01*
X61134790Y-106543408D02*
X61134790Y-106067218D01*
X61420505Y-106638646D02*
X60420505Y-106305313D01*
X60420505Y-106305313D02*
X61420505Y-105971980D01*
X81997797Y-99115617D02*
X81997797Y-99925140D01*
X81997797Y-99925140D02*
X82045416Y-100020378D01*
X82045416Y-100020378D02*
X82093035Y-100067998D01*
X82093035Y-100067998D02*
X82188273Y-100115617D01*
X82188273Y-100115617D02*
X82378749Y-100115617D01*
X82378749Y-100115617D02*
X82473987Y-100067998D01*
X82473987Y-100067998D02*
X82521606Y-100020378D01*
X82521606Y-100020378D02*
X82569225Y-99925140D01*
X82569225Y-99925140D02*
X82569225Y-99115617D01*
X83569225Y-100115617D02*
X82997797Y-100115617D01*
X83283511Y-100115617D02*
X83283511Y-99115617D01*
X83283511Y-99115617D02*
X83188273Y-99258474D01*
X83188273Y-99258474D02*
X83093035Y-99353712D01*
X83093035Y-99353712D02*
X82997797Y-99401331D01*
X51602225Y-74913383D02*
X51554606Y-74961003D01*
X51554606Y-74961003D02*
X51411749Y-75008622D01*
X51411749Y-75008622D02*
X51316511Y-75008622D01*
X51316511Y-75008622D02*
X51173654Y-74961003D01*
X51173654Y-74961003D02*
X51078416Y-74865764D01*
X51078416Y-74865764D02*
X51030797Y-74770526D01*
X51030797Y-74770526D02*
X50983178Y-74580050D01*
X50983178Y-74580050D02*
X50983178Y-74437193D01*
X50983178Y-74437193D02*
X51030797Y-74246717D01*
X51030797Y-74246717D02*
X51078416Y-74151479D01*
X51078416Y-74151479D02*
X51173654Y-74056241D01*
X51173654Y-74056241D02*
X51316511Y-74008622D01*
X51316511Y-74008622D02*
X51411749Y-74008622D01*
X51411749Y-74008622D02*
X51554606Y-74056241D01*
X51554606Y-74056241D02*
X51602225Y-74103860D01*
X52459368Y-74341955D02*
X52459368Y-75008622D01*
X52221273Y-73961003D02*
X51983178Y-74675288D01*
X51983178Y-74675288D02*
X52602225Y-74675288D01*
X82008553Y-90026517D02*
X82008553Y-90836040D01*
X82008553Y-90836040D02*
X82056172Y-90931278D01*
X82056172Y-90931278D02*
X82103791Y-90978898D01*
X82103791Y-90978898D02*
X82199029Y-91026517D01*
X82199029Y-91026517D02*
X82389505Y-91026517D01*
X82389505Y-91026517D02*
X82484743Y-90978898D01*
X82484743Y-90978898D02*
X82532362Y-90931278D01*
X82532362Y-90931278D02*
X82579981Y-90836040D01*
X82579981Y-90836040D02*
X82579981Y-90026517D01*
X83008553Y-90121755D02*
X83056172Y-90074136D01*
X83056172Y-90074136D02*
X83151410Y-90026517D01*
X83151410Y-90026517D02*
X83389505Y-90026517D01*
X83389505Y-90026517D02*
X83484743Y-90074136D01*
X83484743Y-90074136D02*
X83532362Y-90121755D01*
X83532362Y-90121755D02*
X83579981Y-90216993D01*
X83579981Y-90216993D02*
X83579981Y-90312231D01*
X83579981Y-90312231D02*
X83532362Y-90455088D01*
X83532362Y-90455088D02*
X82960934Y-91026517D01*
X82960934Y-91026517D02*
X83579981Y-91026517D01*
X54222146Y-81115988D02*
X53888813Y-80639797D01*
X53650718Y-81115988D02*
X53650718Y-80115988D01*
X53650718Y-80115988D02*
X54031670Y-80115988D01*
X54031670Y-80115988D02*
X54126908Y-80163607D01*
X54126908Y-80163607D02*
X54174527Y-80211226D01*
X54174527Y-80211226D02*
X54222146Y-80306464D01*
X54222146Y-80306464D02*
X54222146Y-80449321D01*
X54222146Y-80449321D02*
X54174527Y-80544559D01*
X54174527Y-80544559D02*
X54126908Y-80592178D01*
X54126908Y-80592178D02*
X54031670Y-80639797D01*
X54031670Y-80639797D02*
X53650718Y-80639797D01*
X55079289Y-80115988D02*
X54888813Y-80115988D01*
X54888813Y-80115988D02*
X54793575Y-80163607D01*
X54793575Y-80163607D02*
X54745956Y-80211226D01*
X54745956Y-80211226D02*
X54650718Y-80354083D01*
X54650718Y-80354083D02*
X54603099Y-80544559D01*
X54603099Y-80544559D02*
X54603099Y-80925511D01*
X54603099Y-80925511D02*
X54650718Y-81020749D01*
X54650718Y-81020749D02*
X54698337Y-81068369D01*
X54698337Y-81068369D02*
X54793575Y-81115988D01*
X54793575Y-81115988D02*
X54984051Y-81115988D01*
X54984051Y-81115988D02*
X55079289Y-81068369D01*
X55079289Y-81068369D02*
X55126908Y-81020749D01*
X55126908Y-81020749D02*
X55174527Y-80925511D01*
X55174527Y-80925511D02*
X55174527Y-80687416D01*
X55174527Y-80687416D02*
X55126908Y-80592178D01*
X55126908Y-80592178D02*
X55079289Y-80544559D01*
X55079289Y-80544559D02*
X54984051Y-80496940D01*
X54984051Y-80496940D02*
X54793575Y-80496940D01*
X54793575Y-80496940D02*
X54698337Y-80544559D01*
X54698337Y-80544559D02*
X54650718Y-80592178D01*
X54650718Y-80592178D02*
X54603099Y-80687416D01*
X68605314Y-67585153D02*
X68129124Y-67585153D01*
X68129124Y-67585153D02*
X68129124Y-66585153D01*
X69462457Y-67585153D02*
X68891029Y-67585153D01*
X69176743Y-67585153D02*
X69176743Y-66585153D01*
X69176743Y-66585153D02*
X69081505Y-66728010D01*
X69081505Y-66728010D02*
X68986267Y-66823248D01*
X68986267Y-66823248D02*
X68891029Y-66870867D01*
X79208333Y-115454580D02*
X79160714Y-115502200D01*
X79160714Y-115502200D02*
X79017857Y-115549819D01*
X79017857Y-115549819D02*
X78922619Y-115549819D01*
X78922619Y-115549819D02*
X78779762Y-115502200D01*
X78779762Y-115502200D02*
X78684524Y-115406961D01*
X78684524Y-115406961D02*
X78636905Y-115311723D01*
X78636905Y-115311723D02*
X78589286Y-115121247D01*
X78589286Y-115121247D02*
X78589286Y-114978390D01*
X78589286Y-114978390D02*
X78636905Y-114787914D01*
X78636905Y-114787914D02*
X78684524Y-114692676D01*
X78684524Y-114692676D02*
X78779762Y-114597438D01*
X78779762Y-114597438D02*
X78922619Y-114549819D01*
X78922619Y-114549819D02*
X79017857Y-114549819D01*
X79017857Y-114549819D02*
X79160714Y-114597438D01*
X79160714Y-114597438D02*
X79208333Y-114645057D01*
X80065476Y-114549819D02*
X79875000Y-114549819D01*
X79875000Y-114549819D02*
X79779762Y-114597438D01*
X79779762Y-114597438D02*
X79732143Y-114645057D01*
X79732143Y-114645057D02*
X79636905Y-114787914D01*
X79636905Y-114787914D02*
X79589286Y-114978390D01*
X79589286Y-114978390D02*
X79589286Y-115359342D01*
X79589286Y-115359342D02*
X79636905Y-115454580D01*
X79636905Y-115454580D02*
X79684524Y-115502200D01*
X79684524Y-115502200D02*
X79779762Y-115549819D01*
X79779762Y-115549819D02*
X79970238Y-115549819D01*
X79970238Y-115549819D02*
X80065476Y-115502200D01*
X80065476Y-115502200D02*
X80113095Y-115454580D01*
X80113095Y-115454580D02*
X80160714Y-115359342D01*
X80160714Y-115359342D02*
X80160714Y-115121247D01*
X80160714Y-115121247D02*
X80113095Y-115026009D01*
X80113095Y-115026009D02*
X80065476Y-114978390D01*
X80065476Y-114978390D02*
X79970238Y-114930771D01*
X79970238Y-114930771D02*
X79779762Y-114930771D01*
X79779762Y-114930771D02*
X79684524Y-114978390D01*
X79684524Y-114978390D02*
X79636905Y-115026009D01*
X79636905Y-115026009D02*
X79589286Y-115121247D01*
X69950333Y-83714780D02*
X69902714Y-83762400D01*
X69902714Y-83762400D02*
X69759857Y-83810019D01*
X69759857Y-83810019D02*
X69664619Y-83810019D01*
X69664619Y-83810019D02*
X69521762Y-83762400D01*
X69521762Y-83762400D02*
X69426524Y-83667161D01*
X69426524Y-83667161D02*
X69378905Y-83571923D01*
X69378905Y-83571923D02*
X69331286Y-83381447D01*
X69331286Y-83381447D02*
X69331286Y-83238590D01*
X69331286Y-83238590D02*
X69378905Y-83048114D01*
X69378905Y-83048114D02*
X69426524Y-82952876D01*
X69426524Y-82952876D02*
X69521762Y-82857638D01*
X69521762Y-82857638D02*
X69664619Y-82810019D01*
X69664619Y-82810019D02*
X69759857Y-82810019D01*
X69759857Y-82810019D02*
X69902714Y-82857638D01*
X69902714Y-82857638D02*
X69950333Y-82905257D01*
X70902714Y-83810019D02*
X70331286Y-83810019D01*
X70617000Y-83810019D02*
X70617000Y-82810019D01*
X70617000Y-82810019D02*
X70521762Y-82952876D01*
X70521762Y-82952876D02*
X70426524Y-83048114D01*
X70426524Y-83048114D02*
X70331286Y-83095733D01*
X79233733Y-110501580D02*
X79186114Y-110549200D01*
X79186114Y-110549200D02*
X79043257Y-110596819D01*
X79043257Y-110596819D02*
X78948019Y-110596819D01*
X78948019Y-110596819D02*
X78805162Y-110549200D01*
X78805162Y-110549200D02*
X78709924Y-110453961D01*
X78709924Y-110453961D02*
X78662305Y-110358723D01*
X78662305Y-110358723D02*
X78614686Y-110168247D01*
X78614686Y-110168247D02*
X78614686Y-110025390D01*
X78614686Y-110025390D02*
X78662305Y-109834914D01*
X78662305Y-109834914D02*
X78709924Y-109739676D01*
X78709924Y-109739676D02*
X78805162Y-109644438D01*
X78805162Y-109644438D02*
X78948019Y-109596819D01*
X78948019Y-109596819D02*
X79043257Y-109596819D01*
X79043257Y-109596819D02*
X79186114Y-109644438D01*
X79186114Y-109644438D02*
X79233733Y-109692057D01*
X80138495Y-109596819D02*
X79662305Y-109596819D01*
X79662305Y-109596819D02*
X79614686Y-110073009D01*
X79614686Y-110073009D02*
X79662305Y-110025390D01*
X79662305Y-110025390D02*
X79757543Y-109977771D01*
X79757543Y-109977771D02*
X79995638Y-109977771D01*
X79995638Y-109977771D02*
X80090876Y-110025390D01*
X80090876Y-110025390D02*
X80138495Y-110073009D01*
X80138495Y-110073009D02*
X80186114Y-110168247D01*
X80186114Y-110168247D02*
X80186114Y-110406342D01*
X80186114Y-110406342D02*
X80138495Y-110501580D01*
X80138495Y-110501580D02*
X80090876Y-110549200D01*
X80090876Y-110549200D02*
X79995638Y-110596819D01*
X79995638Y-110596819D02*
X79757543Y-110596819D01*
X79757543Y-110596819D02*
X79662305Y-110549200D01*
X79662305Y-110549200D02*
X79614686Y-110501580D01*
X59252795Y-74255619D02*
X59252795Y-75065142D01*
X59252795Y-75065142D02*
X59300414Y-75160380D01*
X59300414Y-75160380D02*
X59348033Y-75208000D01*
X59348033Y-75208000D02*
X59443271Y-75255619D01*
X59443271Y-75255619D02*
X59633747Y-75255619D01*
X59633747Y-75255619D02*
X59728985Y-75208000D01*
X59728985Y-75208000D02*
X59776604Y-75160380D01*
X59776604Y-75160380D02*
X59824223Y-75065142D01*
X59824223Y-75065142D02*
X59824223Y-74255619D01*
X60776604Y-74255619D02*
X60300414Y-74255619D01*
X60300414Y-74255619D02*
X60252795Y-74731809D01*
X60252795Y-74731809D02*
X60300414Y-74684190D01*
X60300414Y-74684190D02*
X60395652Y-74636571D01*
X60395652Y-74636571D02*
X60633747Y-74636571D01*
X60633747Y-74636571D02*
X60728985Y-74684190D01*
X60728985Y-74684190D02*
X60776604Y-74731809D01*
X60776604Y-74731809D02*
X60824223Y-74827047D01*
X60824223Y-74827047D02*
X60824223Y-75065142D01*
X60824223Y-75065142D02*
X60776604Y-75160380D01*
X60776604Y-75160380D02*
X60728985Y-75208000D01*
X60728985Y-75208000D02*
X60633747Y-75255619D01*
X60633747Y-75255619D02*
X60395652Y-75255619D01*
X60395652Y-75255619D02*
X60300414Y-75208000D01*
X60300414Y-75208000D02*
X60252795Y-75160380D01*
X64964457Y-82315038D02*
X64916838Y-82410276D01*
X64916838Y-82410276D02*
X64821600Y-82505514D01*
X64821600Y-82505514D02*
X64678742Y-82648371D01*
X64678742Y-82648371D02*
X64631123Y-82743609D01*
X64631123Y-82743609D02*
X64631123Y-82838847D01*
X64869219Y-82791228D02*
X64821600Y-82886466D01*
X64821600Y-82886466D02*
X64726361Y-82981704D01*
X64726361Y-82981704D02*
X64535885Y-83029323D01*
X64535885Y-83029323D02*
X64202552Y-83029323D01*
X64202552Y-83029323D02*
X64012076Y-82981704D01*
X64012076Y-82981704D02*
X63916838Y-82886466D01*
X63916838Y-82886466D02*
X63869219Y-82791228D01*
X63869219Y-82791228D02*
X63869219Y-82600752D01*
X63869219Y-82600752D02*
X63916838Y-82505514D01*
X63916838Y-82505514D02*
X64012076Y-82410276D01*
X64012076Y-82410276D02*
X64202552Y-82362657D01*
X64202552Y-82362657D02*
X64535885Y-82362657D01*
X64535885Y-82362657D02*
X64726361Y-82410276D01*
X64726361Y-82410276D02*
X64821600Y-82505514D01*
X64821600Y-82505514D02*
X64869219Y-82600752D01*
X64869219Y-82600752D02*
X64869219Y-82791228D01*
X63964457Y-81981704D02*
X63916838Y-81934085D01*
X63916838Y-81934085D02*
X63869219Y-81838847D01*
X63869219Y-81838847D02*
X63869219Y-81600752D01*
X63869219Y-81600752D02*
X63916838Y-81505514D01*
X63916838Y-81505514D02*
X63964457Y-81457895D01*
X63964457Y-81457895D02*
X64059695Y-81410276D01*
X64059695Y-81410276D02*
X64154933Y-81410276D01*
X64154933Y-81410276D02*
X64297790Y-81457895D01*
X64297790Y-81457895D02*
X64869219Y-82029323D01*
X64869219Y-82029323D02*
X64869219Y-81410276D01*
D11*
X65442933Y-73355419D02*
X64966743Y-73355419D01*
X64966743Y-73355419D02*
X64966743Y-72355419D01*
X66300076Y-73355419D02*
X65728648Y-73355419D01*
X66014362Y-73355419D02*
X66014362Y-72355419D01*
X66014362Y-72355419D02*
X65919124Y-72498276D01*
X65919124Y-72498276D02*
X65823886Y-72593514D01*
X65823886Y-72593514D02*
X65728648Y-72641133D01*
D10*
X73769105Y-73889019D02*
X73769105Y-72889019D01*
X73769105Y-72889019D02*
X74007200Y-72889019D01*
X74007200Y-72889019D02*
X74150057Y-72936638D01*
X74150057Y-72936638D02*
X74245295Y-73031876D01*
X74245295Y-73031876D02*
X74292914Y-73127114D01*
X74292914Y-73127114D02*
X74340533Y-73317590D01*
X74340533Y-73317590D02*
X74340533Y-73460447D01*
X74340533Y-73460447D02*
X74292914Y-73650923D01*
X74292914Y-73650923D02*
X74245295Y-73746161D01*
X74245295Y-73746161D02*
X74150057Y-73841400D01*
X74150057Y-73841400D02*
X74007200Y-73889019D01*
X74007200Y-73889019D02*
X73769105Y-73889019D01*
X75292914Y-73889019D02*
X74721486Y-73889019D01*
X75007200Y-73889019D02*
X75007200Y-72889019D01*
X75007200Y-72889019D02*
X74911962Y-73031876D01*
X74911962Y-73031876D02*
X74816724Y-73127114D01*
X74816724Y-73127114D02*
X74721486Y-73174733D01*
X75454819Y-85946866D02*
X74978628Y-86280199D01*
X75454819Y-86518294D02*
X74454819Y-86518294D01*
X74454819Y-86518294D02*
X74454819Y-86137342D01*
X74454819Y-86137342D02*
X74502438Y-86042104D01*
X74502438Y-86042104D02*
X74550057Y-85994485D01*
X74550057Y-85994485D02*
X74645295Y-85946866D01*
X74645295Y-85946866D02*
X74788152Y-85946866D01*
X74788152Y-85946866D02*
X74883390Y-85994485D01*
X74883390Y-85994485D02*
X74931009Y-86042104D01*
X74931009Y-86042104D02*
X74978628Y-86137342D01*
X74978628Y-86137342D02*
X74978628Y-86518294D01*
X74550057Y-85565913D02*
X74502438Y-85518294D01*
X74502438Y-85518294D02*
X74454819Y-85423056D01*
X74454819Y-85423056D02*
X74454819Y-85184961D01*
X74454819Y-85184961D02*
X74502438Y-85089723D01*
X74502438Y-85089723D02*
X74550057Y-85042104D01*
X74550057Y-85042104D02*
X74645295Y-84994485D01*
X74645295Y-84994485D02*
X74740533Y-84994485D01*
X74740533Y-84994485D02*
X74883390Y-85042104D01*
X74883390Y-85042104D02*
X75454819Y-85613532D01*
X75454819Y-85613532D02*
X75454819Y-84994485D01*
X75454819Y-95166666D02*
X74978628Y-95499999D01*
X75454819Y-95738094D02*
X74454819Y-95738094D01*
X74454819Y-95738094D02*
X74454819Y-95357142D01*
X74454819Y-95357142D02*
X74502438Y-95261904D01*
X74502438Y-95261904D02*
X74550057Y-95214285D01*
X74550057Y-95214285D02*
X74645295Y-95166666D01*
X74645295Y-95166666D02*
X74788152Y-95166666D01*
X74788152Y-95166666D02*
X74883390Y-95214285D01*
X74883390Y-95214285D02*
X74931009Y-95261904D01*
X74931009Y-95261904D02*
X74978628Y-95357142D01*
X74978628Y-95357142D02*
X74978628Y-95738094D01*
X74788152Y-94309523D02*
X75454819Y-94309523D01*
X74407200Y-94547618D02*
X75121485Y-94785713D01*
X75121485Y-94785713D02*
X75121485Y-94166666D01*
X71357043Y-79362992D02*
X70880852Y-79696325D01*
X71357043Y-79934420D02*
X70357043Y-79934420D01*
X70357043Y-79934420D02*
X70357043Y-79553468D01*
X70357043Y-79553468D02*
X70404662Y-79458230D01*
X70404662Y-79458230D02*
X70452281Y-79410611D01*
X70452281Y-79410611D02*
X70547519Y-79362992D01*
X70547519Y-79362992D02*
X70690376Y-79362992D01*
X70690376Y-79362992D02*
X70785614Y-79410611D01*
X70785614Y-79410611D02*
X70833233Y-79458230D01*
X70833233Y-79458230D02*
X70880852Y-79553468D01*
X70880852Y-79553468D02*
X70880852Y-79934420D01*
X71357043Y-78410611D02*
X71357043Y-78982039D01*
X71357043Y-78696325D02*
X70357043Y-78696325D01*
X70357043Y-78696325D02*
X70499900Y-78791563D01*
X70499900Y-78791563D02*
X70595138Y-78886801D01*
X70595138Y-78886801D02*
X70642757Y-78982039D01*
X65290933Y-78206380D02*
X65243314Y-78254000D01*
X65243314Y-78254000D02*
X65100457Y-78301619D01*
X65100457Y-78301619D02*
X65005219Y-78301619D01*
X65005219Y-78301619D02*
X64862362Y-78254000D01*
X64862362Y-78254000D02*
X64767124Y-78158761D01*
X64767124Y-78158761D02*
X64719505Y-78063523D01*
X64719505Y-78063523D02*
X64671886Y-77873047D01*
X64671886Y-77873047D02*
X64671886Y-77730190D01*
X64671886Y-77730190D02*
X64719505Y-77539714D01*
X64719505Y-77539714D02*
X64767124Y-77444476D01*
X64767124Y-77444476D02*
X64862362Y-77349238D01*
X64862362Y-77349238D02*
X65005219Y-77301619D01*
X65005219Y-77301619D02*
X65100457Y-77301619D01*
X65100457Y-77301619D02*
X65243314Y-77349238D01*
X65243314Y-77349238D02*
X65290933Y-77396857D01*
X65624267Y-77301619D02*
X66243314Y-77301619D01*
X66243314Y-77301619D02*
X65909981Y-77682571D01*
X65909981Y-77682571D02*
X66052838Y-77682571D01*
X66052838Y-77682571D02*
X66148076Y-77730190D01*
X66148076Y-77730190D02*
X66195695Y-77777809D01*
X66195695Y-77777809D02*
X66243314Y-77873047D01*
X66243314Y-77873047D02*
X66243314Y-78111142D01*
X66243314Y-78111142D02*
X66195695Y-78206380D01*
X66195695Y-78206380D02*
X66148076Y-78254000D01*
X66148076Y-78254000D02*
X66052838Y-78301619D01*
X66052838Y-78301619D02*
X65767124Y-78301619D01*
X65767124Y-78301619D02*
X65671886Y-78254000D01*
X65671886Y-78254000D02*
X65624267Y-78206380D01*
X55191066Y-72454419D02*
X55191066Y-73168704D01*
X55191066Y-73168704D02*
X55143447Y-73311561D01*
X55143447Y-73311561D02*
X55048209Y-73406800D01*
X55048209Y-73406800D02*
X54905352Y-73454419D01*
X54905352Y-73454419D02*
X54810114Y-73454419D01*
X56191066Y-73454419D02*
X55619638Y-73454419D01*
X55905352Y-73454419D02*
X55905352Y-72454419D01*
X55905352Y-72454419D02*
X55810114Y-72597276D01*
X55810114Y-72597276D02*
X55714876Y-72692514D01*
X55714876Y-72692514D02*
X55619638Y-72740133D01*
X23328333Y-124623980D02*
X23280714Y-124671600D01*
X23280714Y-124671600D02*
X23137857Y-124719219D01*
X23137857Y-124719219D02*
X23042619Y-124719219D01*
X23042619Y-124719219D02*
X22899762Y-124671600D01*
X22899762Y-124671600D02*
X22804524Y-124576361D01*
X22804524Y-124576361D02*
X22756905Y-124481123D01*
X22756905Y-124481123D02*
X22709286Y-124290647D01*
X22709286Y-124290647D02*
X22709286Y-124147790D01*
X22709286Y-124147790D02*
X22756905Y-123957314D01*
X22756905Y-123957314D02*
X22804524Y-123862076D01*
X22804524Y-123862076D02*
X22899762Y-123766838D01*
X22899762Y-123766838D02*
X23042619Y-123719219D01*
X23042619Y-123719219D02*
X23137857Y-123719219D01*
X23137857Y-123719219D02*
X23280714Y-123766838D01*
X23280714Y-123766838D02*
X23328333Y-123814457D01*
X23661667Y-123719219D02*
X24328333Y-123719219D01*
X24328333Y-123719219D02*
X23899762Y-124719219D01*
X83979988Y-77681445D02*
X83979988Y-78490968D01*
X83979988Y-78490968D02*
X84027607Y-78586206D01*
X84027607Y-78586206D02*
X84075226Y-78633826D01*
X84075226Y-78633826D02*
X84170464Y-78681445D01*
X84170464Y-78681445D02*
X84360940Y-78681445D01*
X84360940Y-78681445D02*
X84456178Y-78633826D01*
X84456178Y-78633826D02*
X84503797Y-78586206D01*
X84503797Y-78586206D02*
X84551416Y-78490968D01*
X84551416Y-78490968D02*
X84551416Y-77681445D01*
X84932369Y-77681445D02*
X85551416Y-77681445D01*
X85551416Y-77681445D02*
X85218083Y-78062397D01*
X85218083Y-78062397D02*
X85360940Y-78062397D01*
X85360940Y-78062397D02*
X85456178Y-78110016D01*
X85456178Y-78110016D02*
X85503797Y-78157635D01*
X85503797Y-78157635D02*
X85551416Y-78252873D01*
X85551416Y-78252873D02*
X85551416Y-78490968D01*
X85551416Y-78490968D02*
X85503797Y-78586206D01*
X85503797Y-78586206D02*
X85456178Y-78633826D01*
X85456178Y-78633826D02*
X85360940Y-78681445D01*
X85360940Y-78681445D02*
X85075226Y-78681445D01*
X85075226Y-78681445D02*
X84979988Y-78633826D01*
X84979988Y-78633826D02*
X84932369Y-78586206D01*
X75359580Y-91505066D02*
X75407200Y-91552685D01*
X75407200Y-91552685D02*
X75454819Y-91695542D01*
X75454819Y-91695542D02*
X75454819Y-91790780D01*
X75454819Y-91790780D02*
X75407200Y-91933637D01*
X75407200Y-91933637D02*
X75311961Y-92028875D01*
X75311961Y-92028875D02*
X75216723Y-92076494D01*
X75216723Y-92076494D02*
X75026247Y-92124113D01*
X75026247Y-92124113D02*
X74883390Y-92124113D01*
X74883390Y-92124113D02*
X74692914Y-92076494D01*
X74692914Y-92076494D02*
X74597676Y-92028875D01*
X74597676Y-92028875D02*
X74502438Y-91933637D01*
X74502438Y-91933637D02*
X74454819Y-91790780D01*
X74454819Y-91790780D02*
X74454819Y-91695542D01*
X74454819Y-91695542D02*
X74502438Y-91552685D01*
X74502438Y-91552685D02*
X74550057Y-91505066D01*
X74550057Y-91124113D02*
X74502438Y-91076494D01*
X74502438Y-91076494D02*
X74454819Y-90981256D01*
X74454819Y-90981256D02*
X74454819Y-90743161D01*
X74454819Y-90743161D02*
X74502438Y-90647923D01*
X74502438Y-90647923D02*
X74550057Y-90600304D01*
X74550057Y-90600304D02*
X74645295Y-90552685D01*
X74645295Y-90552685D02*
X74740533Y-90552685D01*
X74740533Y-90552685D02*
X74883390Y-90600304D01*
X74883390Y-90600304D02*
X75454819Y-91171732D01*
X75454819Y-91171732D02*
X75454819Y-90552685D01*
X58436657Y-90062038D02*
X58389038Y-90157276D01*
X58389038Y-90157276D02*
X58293800Y-90252514D01*
X58293800Y-90252514D02*
X58150942Y-90395371D01*
X58150942Y-90395371D02*
X58103323Y-90490609D01*
X58103323Y-90490609D02*
X58103323Y-90585847D01*
X58341419Y-90538228D02*
X58293800Y-90633466D01*
X58293800Y-90633466D02*
X58198561Y-90728704D01*
X58198561Y-90728704D02*
X58008085Y-90776323D01*
X58008085Y-90776323D02*
X57674752Y-90776323D01*
X57674752Y-90776323D02*
X57484276Y-90728704D01*
X57484276Y-90728704D02*
X57389038Y-90633466D01*
X57389038Y-90633466D02*
X57341419Y-90538228D01*
X57341419Y-90538228D02*
X57341419Y-90347752D01*
X57341419Y-90347752D02*
X57389038Y-90252514D01*
X57389038Y-90252514D02*
X57484276Y-90157276D01*
X57484276Y-90157276D02*
X57674752Y-90109657D01*
X57674752Y-90109657D02*
X58008085Y-90109657D01*
X58008085Y-90109657D02*
X58198561Y-90157276D01*
X58198561Y-90157276D02*
X58293800Y-90252514D01*
X58293800Y-90252514D02*
X58341419Y-90347752D01*
X58341419Y-90347752D02*
X58341419Y-90538228D01*
X58341419Y-89157276D02*
X58341419Y-89728704D01*
X58341419Y-89442990D02*
X57341419Y-89442990D01*
X57341419Y-89442990D02*
X57484276Y-89538228D01*
X57484276Y-89538228D02*
X57579514Y-89633466D01*
X57579514Y-89633466D02*
X57627133Y-89728704D01*
X82846266Y-72638219D02*
X82846266Y-73352504D01*
X82846266Y-73352504D02*
X82798647Y-73495361D01*
X82798647Y-73495361D02*
X82703409Y-73590600D01*
X82703409Y-73590600D02*
X82560552Y-73638219D01*
X82560552Y-73638219D02*
X82465314Y-73638219D01*
X83274838Y-72733457D02*
X83322457Y-72685838D01*
X83322457Y-72685838D02*
X83417695Y-72638219D01*
X83417695Y-72638219D02*
X83655790Y-72638219D01*
X83655790Y-72638219D02*
X83751028Y-72685838D01*
X83751028Y-72685838D02*
X83798647Y-72733457D01*
X83798647Y-72733457D02*
X83846266Y-72828695D01*
X83846266Y-72828695D02*
X83846266Y-72923933D01*
X83846266Y-72923933D02*
X83798647Y-73066790D01*
X83798647Y-73066790D02*
X83227219Y-73638219D01*
X83227219Y-73638219D02*
X83846266Y-73638219D01*
X70139028Y-111729790D02*
X70615219Y-111729790D01*
X69615219Y-112063123D02*
X70139028Y-111729790D01*
X70139028Y-111729790D02*
X69615219Y-111396457D01*
X70615219Y-110539314D02*
X70615219Y-111110742D01*
X70615219Y-110825028D02*
X69615219Y-110825028D01*
X69615219Y-110825028D02*
X69758076Y-110920266D01*
X69758076Y-110920266D02*
X69853314Y-111015504D01*
X69853314Y-111015504D02*
X69900933Y-111110742D01*
X56665019Y-76265066D02*
X56188828Y-76598399D01*
X56665019Y-76836494D02*
X55665019Y-76836494D01*
X55665019Y-76836494D02*
X55665019Y-76455542D01*
X55665019Y-76455542D02*
X55712638Y-76360304D01*
X55712638Y-76360304D02*
X55760257Y-76312685D01*
X55760257Y-76312685D02*
X55855495Y-76265066D01*
X55855495Y-76265066D02*
X55998352Y-76265066D01*
X55998352Y-76265066D02*
X56093590Y-76312685D01*
X56093590Y-76312685D02*
X56141209Y-76360304D01*
X56141209Y-76360304D02*
X56188828Y-76455542D01*
X56188828Y-76455542D02*
X56188828Y-76836494D01*
X55665019Y-75360304D02*
X55665019Y-75836494D01*
X55665019Y-75836494D02*
X56141209Y-75884113D01*
X56141209Y-75884113D02*
X56093590Y-75836494D01*
X56093590Y-75836494D02*
X56045971Y-75741256D01*
X56045971Y-75741256D02*
X56045971Y-75503161D01*
X56045971Y-75503161D02*
X56093590Y-75407923D01*
X56093590Y-75407923D02*
X56141209Y-75360304D01*
X56141209Y-75360304D02*
X56236447Y-75312685D01*
X56236447Y-75312685D02*
X56474542Y-75312685D01*
X56474542Y-75312685D02*
X56569780Y-75360304D01*
X56569780Y-75360304D02*
X56617400Y-75407923D01*
X56617400Y-75407923D02*
X56665019Y-75503161D01*
X56665019Y-75503161D02*
X56665019Y-75741256D01*
X56665019Y-75741256D02*
X56617400Y-75836494D01*
X56617400Y-75836494D02*
X56569780Y-75884113D01*
X75454819Y-88203066D02*
X74978628Y-88536399D01*
X75454819Y-88774494D02*
X74454819Y-88774494D01*
X74454819Y-88774494D02*
X74454819Y-88393542D01*
X74454819Y-88393542D02*
X74502438Y-88298304D01*
X74502438Y-88298304D02*
X74550057Y-88250685D01*
X74550057Y-88250685D02*
X74645295Y-88203066D01*
X74645295Y-88203066D02*
X74788152Y-88203066D01*
X74788152Y-88203066D02*
X74883390Y-88250685D01*
X74883390Y-88250685D02*
X74931009Y-88298304D01*
X74931009Y-88298304D02*
X74978628Y-88393542D01*
X74978628Y-88393542D02*
X74978628Y-88774494D01*
X74454819Y-87869732D02*
X74454819Y-87250685D01*
X74454819Y-87250685D02*
X74835771Y-87584018D01*
X74835771Y-87584018D02*
X74835771Y-87441161D01*
X74835771Y-87441161D02*
X74883390Y-87345923D01*
X74883390Y-87345923D02*
X74931009Y-87298304D01*
X74931009Y-87298304D02*
X75026247Y-87250685D01*
X75026247Y-87250685D02*
X75264342Y-87250685D01*
X75264342Y-87250685D02*
X75359580Y-87298304D01*
X75359580Y-87298304D02*
X75407200Y-87345923D01*
X75407200Y-87345923D02*
X75454819Y-87441161D01*
X75454819Y-87441161D02*
X75454819Y-87726875D01*
X75454819Y-87726875D02*
X75407200Y-87822113D01*
X75407200Y-87822113D02*
X75359580Y-87869732D01*
%TO.C,*%
D12*
X79983100Y-84301400D02*
X79643100Y-83831400D01*
X80323100Y-83831400D01*
X79983100Y-84301400D01*
G36*
X79983100Y-84301400D02*
G01*
X79643100Y-83831400D01*
X80323100Y-83831400D01*
X79983100Y-84301400D01*
G37*
X79932300Y-95071000D02*
X79592300Y-94601000D01*
X80272300Y-94601000D01*
X79932300Y-95071000D01*
G36*
X79932300Y-95071000D02*
G01*
X79592300Y-94601000D01*
X80272300Y-94601000D01*
X79932300Y-95071000D01*
G37*
%TO.C,C6*%
X79515580Y-114175000D02*
X79234420Y-114175000D01*
X79515580Y-113155000D02*
X79234420Y-113155000D01*
%TO.C,C1*%
X69976420Y-84275200D02*
X70257580Y-84275200D01*
X69976420Y-85295200D02*
X70257580Y-85295200D01*
%TO.C,C5*%
X79540980Y-109222000D02*
X79259820Y-109222000D01*
X79540980Y-108202000D02*
X79259820Y-108202000D01*
%TO.C,U5*%
X60014700Y-75640800D02*
X59214700Y-75640800D01*
X60014700Y-75640800D02*
X60814700Y-75640800D01*
X60014700Y-78760800D02*
X59214700Y-78760800D01*
X60014700Y-78760800D02*
X60814700Y-78760800D01*
X58714700Y-75690800D02*
X58474700Y-75360800D01*
X58954700Y-75360800D01*
X58714700Y-75690800D01*
G36*
X58714700Y-75690800D02*
G01*
X58474700Y-75360800D01*
X58954700Y-75360800D01*
X58714700Y-75690800D01*
G37*
%TO.C,R6*%
X54001400Y-78438441D02*
X54001400Y-78131159D01*
X54761400Y-78438441D02*
X54761400Y-78131159D01*
%TO.C,C4*%
X52802200Y-77038148D02*
X52802200Y-78460652D01*
X50982200Y-77038148D02*
X50982200Y-78460652D01*
%TO.C,Q2*%
X56006800Y-84255200D02*
X56006800Y-87855200D01*
X60456800Y-86055200D02*
G75*
G03*
X56018322Y-84216722I-2600000J0D01*
G01*
X56018322Y-87893678D02*
G75*
G03*
X60456800Y-86055200I1838478J1838478D01*
G01*
D11*
%TO.C,L1*%
X68849600Y-70358000D02*
G75*
G03*
X61849600Y-70358000I-3500000J0D01*
G01*
X61849600Y-70358000D02*
G75*
G03*
X68849600Y-70358000I3500000J0D01*
G01*
D12*
%TO.C,D1*%
X78167200Y-72584200D02*
X78167200Y-68284200D01*
X78167200Y-72584200D02*
X72357200Y-72584200D01*
X78167200Y-68284200D02*
X72357200Y-68284200D01*
D13*
%TO.C,A1*%
X47685600Y-129034400D02*
X47685600Y-129284400D01*
X47685600Y-78284400D02*
X47685600Y-78534400D01*
X40845600Y-78284400D02*
X47685600Y-78284400D01*
X26685600Y-129284400D02*
X26685600Y-129034400D01*
X26685600Y-78284400D02*
X33525600Y-78284400D01*
X26685600Y-78284400D02*
X26685600Y-78534400D01*
D14*
X49525600Y-127914400D02*
G75*
G03*
X49225600Y-127914400I-150000J0D01*
G01*
X49225600Y-127914400D02*
G75*
G03*
X49525600Y-127914400I150000J0D01*
G01*
D12*
%TO.C,U6*%
X64499000Y-128812600D02*
X64499000Y-103292600D01*
X64499000Y-103292600D02*
X59199000Y-103292600D01*
X62849000Y-128812600D02*
X64499000Y-128812600D01*
X59199000Y-128812600D02*
X60849000Y-128812600D01*
X59199000Y-103292600D02*
X59199000Y-128812600D01*
X62849000Y-128812600D02*
G75*
G03*
X60849000Y-128812600I-1000000J0D01*
G01*
%TO.C,C3*%
X66168852Y-76906800D02*
X64746348Y-76906800D01*
X66168852Y-75086800D02*
X64746348Y-75086800D01*
%TO.C,J1*%
X61126800Y-70476600D02*
X61126800Y-67976600D01*
X61126800Y-67976600D02*
X58626800Y-67976600D01*
X60826800Y-72296600D02*
X60826800Y-68276600D01*
X60826800Y-70586600D02*
X60326800Y-70586600D01*
X60826800Y-69776600D02*
X59826800Y-69776600D01*
X60826800Y-68276600D02*
X50606800Y-68276600D01*
X60326800Y-71796600D02*
X51106800Y-71796600D01*
X60326800Y-70586600D02*
X60326800Y-71796600D01*
X59826800Y-69776600D02*
X59826800Y-68276600D01*
X51606800Y-69776600D02*
X51606800Y-68276600D01*
X51106800Y-71796600D02*
X51106800Y-70586600D01*
X51106800Y-70586600D02*
X50606800Y-70586600D01*
X50606800Y-72296600D02*
X60826800Y-72296600D01*
X50606800Y-69776600D02*
X51606800Y-69776600D01*
X50606800Y-68276600D02*
X50606800Y-72296600D01*
%TO.C,C7*%
X23635580Y-123344400D02*
X23354420Y-123344400D01*
X23635580Y-122324400D02*
X23354420Y-122324400D01*
%TO.C,U3*%
X73061200Y-75932400D02*
X73061200Y-80573400D01*
X73061200Y-75932400D02*
X83301200Y-75932400D01*
X73061200Y-77442400D02*
X83301200Y-77442400D01*
X73061200Y-80573400D02*
X83301200Y-80573400D01*
X76331200Y-75932400D02*
X76331200Y-77442400D01*
X80032200Y-75932400D02*
X80032200Y-77442400D01*
X83301200Y-75932400D02*
X83301200Y-80573400D01*
%TO.C,C2*%
X77573600Y-91197820D02*
X77573600Y-91478980D01*
X76553600Y-91197820D02*
X76553600Y-91478980D01*
%TO.C,Q1*%
X66493000Y-87880600D02*
X66493000Y-84280600D01*
X62043000Y-86080600D02*
G75*
G03*
X66481478Y-87919078I2600000J0D01*
G01*
X66481478Y-84242122D02*
G75*
G03*
X62043000Y-86080600I-1838478J-1838478D01*
G01*
%TO.C,J2*%
X87339600Y-70273400D02*
X87339600Y-67773400D01*
X87339600Y-67773400D02*
X84839600Y-67773400D01*
X87039600Y-72093400D02*
X87039600Y-68073400D01*
X87039600Y-70383400D02*
X86539600Y-70383400D01*
X87039600Y-69573400D02*
X86039600Y-69573400D01*
X87039600Y-68073400D02*
X79319600Y-68073400D01*
X86539600Y-71593400D02*
X79819600Y-71593400D01*
X86539600Y-70383400D02*
X86539600Y-71593400D01*
X86039600Y-69573400D02*
X86039600Y-68073400D01*
X80319600Y-69573400D02*
X80319600Y-68073400D01*
X79819600Y-71593400D02*
X79819600Y-70383400D01*
X79819600Y-70383400D02*
X79319600Y-70383400D01*
X79319600Y-72093400D02*
X87039600Y-72093400D01*
X79319600Y-69573400D02*
X80319600Y-69573400D01*
X79319600Y-68073400D02*
X79319600Y-72093400D01*
%TO.C,Y1*%
X71160400Y-114378600D02*
X71160400Y-108128600D01*
X76210400Y-114378600D02*
X76210400Y-108128600D01*
X71160400Y-114378600D02*
G75*
G03*
X76210400Y-114378600I2525000J0D01*
G01*
X76210400Y-108128600D02*
G75*
G03*
X71160400Y-108128600I-2525000J0D01*
G01*
%TO.C,R5*%
X56514000Y-78103759D02*
X56514000Y-78411041D01*
X55754000Y-78103759D02*
X55754000Y-78411041D01*
%TD*%
M02*
