%TF.GenerationSoftware,KiCad,Pcbnew,7.0.10-7.0.10~ubuntu22.04.1*%
%TF.CreationDate,2025-04-05T16:35:24+07:00*%
%TF.ProjectId,RNG,524e472e-6b69-4636-9164-5f7063625858,rev?*%
%TF.SameCoordinates,Original*%
%TF.FileFunction,Soldermask,Bot*%
%TF.FilePolarity,Negative*%
%FSLAX46Y46*%
G04 Gerber Fmt 4.6, Leading zero omitted, Abs format (unit mm)*
G04 Created by KiCad (PCBNEW 7.0.10-7.0.10~ubuntu22.04.1) date 2025-04-05 16:35:24*
%MOMM*%
%LPD*%
G01*
G04 APERTURE LIST*
G04 Aperture macros list*
%AMRoundRect*
0 Rectangle with rounded corners*
0 $1 Rounding radius*
0 $2 $3 $4 $5 $6 $7 $8 $9 X,Y pos of 4 corners*
0 Add a 4 corners polygon primitive as box body*
4,1,4,$2,$3,$4,$5,$6,$7,$8,$9,$2,$3,0*
0 Add four circle primitives for the rounded corners*
1,1,$1+$1,$2,$3*
1,1,$1+$1,$4,$5*
1,1,$1+$1,$6,$7*
1,1,$1+$1,$8,$9*
0 Add four rect primitives between the rounded corners*
20,1,$1+$1,$2,$3,$4,$5,0*
20,1,$1+$1,$4,$5,$6,$7,0*
20,1,$1+$1,$6,$7,$8,$9,0*
20,1,$1+$1,$8,$9,$2,$3,0*%
G04 Aperture macros list end*
%ADD10R,1.300000X1.300000*%
%ADD11C,1.300000*%
%ADD12C,3.200000*%
%ADD13C,1.600000*%
%ADD14RoundRect,0.200000X0.600000X0.600000X-0.600000X0.600000X-0.600000X-0.600000X0.600000X-0.600000X0*%
%ADD15R,1.600000X1.600000*%
%ADD16O,1.600000X1.600000*%
%ADD17RoundRect,0.250000X0.600000X0.725000X-0.600000X0.725000X-0.600000X-0.725000X0.600000X-0.725000X0*%
%ADD18O,1.700000X1.950000*%
%ADD19R,1.905000X2.000000*%
%ADD20O,1.905000X2.000000*%
%ADD21RoundRect,0.250000X0.600000X0.750000X-0.600000X0.750000X-0.600000X-0.750000X0.600000X-0.750000X0*%
%ADD22O,1.700000X2.000000*%
%ADD23C,1.500000*%
G04 APERTURE END LIST*
D10*
%TO.C,Q2*%
X57856800Y-84785200D03*
D11*
X59126800Y-86055200D03*
X57856800Y-87325200D03*
%TD*%
D12*
%TO.C,H1*%
X84582000Y-125780800D03*
%TD*%
%TO.C,H3*%
X17627600Y-125780800D03*
%TD*%
D13*
%TO.C,A1*%
X46075600Y-127914400D03*
X46075600Y-125374400D03*
D14*
X46075600Y-122834400D03*
D13*
X46075600Y-120294400D03*
X46075600Y-117754400D03*
X46075600Y-115214400D03*
X46075600Y-112674400D03*
D14*
X46075600Y-110134400D03*
D13*
X46075600Y-107594400D03*
X46075600Y-105054400D03*
X46075600Y-102514400D03*
X46075600Y-99974400D03*
D14*
X46075600Y-97434400D03*
D13*
X46075600Y-94894400D03*
X46075600Y-92354400D03*
X46033719Y-89814400D03*
X46075600Y-87274400D03*
D14*
X46075600Y-84734400D03*
D13*
X46075600Y-82194400D03*
X46075600Y-79654400D03*
X28295600Y-79654400D03*
X28295600Y-82194400D03*
D14*
X28295600Y-84734400D03*
D13*
X28295600Y-87274400D03*
X28295600Y-89814400D03*
X28295600Y-92354400D03*
X28295600Y-94894400D03*
D14*
X28295600Y-97434400D03*
D13*
X28295600Y-99974400D03*
X28295600Y-102514400D03*
X28295600Y-105054400D03*
X28295600Y-107594400D03*
D14*
X28295600Y-110134400D03*
D13*
X28295600Y-112674400D03*
X28295600Y-115214400D03*
X28295600Y-117754400D03*
X28295600Y-120294400D03*
D14*
X28295600Y-122834400D03*
D13*
X28295600Y-125374400D03*
X28295600Y-127914400D03*
%TD*%
D15*
%TO.C,U6*%
X65659000Y-127482600D03*
D16*
X65659000Y-124942600D03*
X65659000Y-122402600D03*
X65659000Y-119862600D03*
X65659000Y-117322600D03*
X65659000Y-114782600D03*
X65659000Y-112242600D03*
X65659000Y-109702600D03*
X65659000Y-107162600D03*
X65659000Y-104622600D03*
X58039000Y-104622600D03*
X58039000Y-107162600D03*
X58039000Y-109702600D03*
X58039000Y-112242600D03*
X58039000Y-114782600D03*
X58039000Y-117322600D03*
X58039000Y-119862600D03*
X58039000Y-122402600D03*
X58039000Y-124942600D03*
X58039000Y-127482600D03*
%TD*%
D17*
%TO.C,J1*%
X58216800Y-70586600D03*
D18*
X55716800Y-70586600D03*
X53216800Y-70586600D03*
%TD*%
D12*
%TO.C,H4*%
X17678400Y-97891600D03*
%TD*%
D19*
%TO.C,U3*%
X75641200Y-79202400D03*
D20*
X78181200Y-79202400D03*
X80721200Y-79202400D03*
%TD*%
D12*
%TO.C,H2*%
X17729200Y-69799200D03*
%TD*%
D10*
%TO.C,Q1*%
X64643000Y-87350600D03*
D11*
X63373000Y-86080600D03*
X64643000Y-84810600D03*
%TD*%
D21*
%TO.C,J2*%
X84429600Y-70383400D03*
D22*
X81929600Y-70383400D03*
%TD*%
D23*
%TO.C,Y1*%
X73685400Y-113693600D03*
X73685400Y-108813600D03*
%TD*%
M02*
