%TF.GenerationSoftware,KiCad,Pcbnew,7.0.10-7.0.10~ubuntu22.04.1*%
%TF.CreationDate,2025-04-05T16:35:23+07:00*%
%TF.ProjectId,RNG,524e472e-6b69-4636-9164-5f7063625858,rev?*%
%TF.SameCoordinates,Original*%
%TF.FileFunction,Paste,Top*%
%TF.FilePolarity,Positive*%
%FSLAX46Y46*%
G04 Gerber Fmt 4.6, Leading zero omitted, Abs format (unit mm)*
G04 Created by KiCad (PCBNEW 7.0.10-7.0.10~ubuntu22.04.1) date 2025-04-05 16:35:23*
%MOMM*%
%LPD*%
G01*
G04 APERTURE LIST*
G04 Aperture macros list*
%AMRoundRect*
0 Rectangle with rounded corners*
0 $1 Rounding radius*
0 $2 $3 $4 $5 $6 $7 $8 $9 X,Y pos of 4 corners*
0 Add a 4 corners polygon primitive as box body*
4,1,4,$2,$3,$4,$5,$6,$7,$8,$9,$2,$3,0*
0 Add four circle primitives for the rounded corners*
1,1,$1+$1,$2,$3*
1,1,$1+$1,$4,$5*
1,1,$1+$1,$6,$7*
1,1,$1+$1,$8,$9*
0 Add four rect primitives between the rounded corners*
20,1,$1+$1,$2,$3,$4,$5,0*
20,1,$1+$1,$4,$5,$6,$7,0*
20,1,$1+$1,$6,$7,$8,$9,0*
20,1,$1+$1,$8,$9,$2,$3,0*%
G04 Aperture macros list end*
%ADD10RoundRect,0.150000X-0.875000X-0.150000X0.875000X-0.150000X0.875000X0.150000X-0.875000X0.150000X0*%
%ADD11RoundRect,0.225000X0.225000X0.250000X-0.225000X0.250000X-0.225000X-0.250000X0.225000X-0.250000X0*%
%ADD12RoundRect,0.225000X-0.225000X-0.250000X0.225000X-0.250000X0.225000X0.250000X-0.225000X0.250000X0*%
%ADD13RoundRect,0.150000X-0.512500X-0.150000X0.512500X-0.150000X0.512500X0.150000X-0.512500X0.150000X0*%
%ADD14RoundRect,0.135000X0.185000X-0.135000X0.185000X0.135000X-0.185000X0.135000X-0.185000X-0.135000X0*%
%ADD15RoundRect,0.250000X-0.650000X0.325000X-0.650000X-0.325000X0.650000X-0.325000X0.650000X0.325000X0*%
%ADD16RoundRect,0.350000X-0.350000X-1.400000X0.350000X-1.400000X0.350000X1.400000X-0.350000X1.400000X0*%
%ADD17RoundRect,0.250000X1.000000X0.900000X-1.000000X0.900000X-1.000000X-0.900000X1.000000X-0.900000X0*%
%ADD18RoundRect,0.067500X-0.067500X0.067500X-0.067500X-0.067500X0.067500X-0.067500X0.067500X0.067500X0*%
%ADD19RoundRect,0.250000X0.325000X0.650000X-0.325000X0.650000X-0.325000X-0.650000X0.325000X-0.650000X0*%
%ADD20RoundRect,0.225000X-0.250000X0.225000X-0.250000X-0.225000X0.250000X-0.225000X0.250000X0.225000X0*%
%ADD21RoundRect,0.135000X-0.185000X0.135000X-0.185000X-0.135000X0.185000X-0.135000X0.185000X0.135000X0*%
G04 APERTURE END LIST*
D10*
%TO.C,*%
X80045600Y-84861400D03*
X80045600Y-86131400D03*
X80045600Y-87401400D03*
X80045600Y-88671400D03*
X80045600Y-89941400D03*
X80045600Y-91211400D03*
X80045600Y-92481400D03*
X85445600Y-92481400D03*
X85445600Y-91211400D03*
X85445600Y-89941400D03*
X85445600Y-88671400D03*
X85445600Y-87401400D03*
X85445600Y-86131400D03*
X85445600Y-84861400D03*
%TD*%
%TO.C,*%
X79994800Y-95631000D03*
X79994800Y-96901000D03*
X79994800Y-98171000D03*
X79994800Y-99441000D03*
X79994800Y-100711000D03*
X79994800Y-101981000D03*
X79994800Y-103251000D03*
X85394800Y-103251000D03*
X85394800Y-101981000D03*
X85394800Y-100711000D03*
X85394800Y-99441000D03*
X85394800Y-98171000D03*
X85394800Y-96901000D03*
X85394800Y-95631000D03*
%TD*%
D11*
%TO.C,C6*%
X80150000Y-113665000D03*
X78600000Y-113665000D03*
%TD*%
D12*
%TO.C,C1*%
X69342000Y-84785200D03*
X70892000Y-84785200D03*
%TD*%
D11*
%TO.C,C5*%
X80175400Y-108712000D03*
X78625400Y-108712000D03*
%TD*%
D13*
%TO.C,U5*%
X58877200Y-76250800D03*
X58877200Y-77200800D03*
X58877200Y-78150800D03*
X61152200Y-78150800D03*
X61152200Y-77200800D03*
X61152200Y-76250800D03*
%TD*%
D14*
%TO.C,R6*%
X54381400Y-78794800D03*
X54381400Y-77774800D03*
%TD*%
D15*
%TO.C,C4*%
X51892200Y-76274400D03*
X51892200Y-79224400D03*
%TD*%
D16*
%TO.C,L1*%
X64049600Y-70358000D03*
X66649600Y-70358000D03*
%TD*%
D17*
%TO.C,D1*%
X76657200Y-70434200D03*
X72357200Y-70434200D03*
%TD*%
D18*
%TO.C,R2*%
X77266800Y-85505200D03*
X77266800Y-86055200D03*
%TD*%
%TO.C,R4*%
X77038200Y-94818200D03*
X77038200Y-95368200D03*
%TD*%
%TO.C,R1*%
X69367400Y-79176200D03*
X69367400Y-79726200D03*
%TD*%
D19*
%TO.C,C3*%
X66932600Y-75996800D03*
X63982600Y-75996800D03*
%TD*%
D11*
%TO.C,C7*%
X24270000Y-122834400D03*
X22720000Y-122834400D03*
%TD*%
D20*
%TO.C,C2*%
X77063600Y-90563400D03*
X77063600Y-92113400D03*
%TD*%
D21*
%TO.C,R5*%
X56134000Y-77747400D03*
X56134000Y-78767400D03*
%TD*%
D18*
%TO.C,R3*%
X77317600Y-87761400D03*
X77317600Y-88311400D03*
%TD*%
M02*
